<svg id="Grupo_8" data-name="Grupo 8" xmlns="http://www.w3.org/2000/svg" width="15.307" height="11.697" viewBox="0 0 15.307 11.697">
  <g id="Grupo_6" data-name="Grupo 6" transform="translate(0 0)">
    <path id="Trazado_6" data-name="Trazado 6" d="M3012.418,784.8c-4.228,0-6.338-3.011-7.557-5.276a.81.81,0,0,1-.007-.755c.113-.221,2.83-5.414,7.189-5.655a3.375,3.375,0,0,1,.375-.01h.064c.1,0,.2,0,.316.012,4.356.246,7.07,5.433,7.183,5.654a.81.81,0,0,1-.007.755C3018.117,782.979,3015.5,784.8,3012.418,784.8Zm-5.914-5.656c1.6,2.787,3.434,4.035,5.914,4.035,2.375,0,4.363-1.357,5.913-4.036-.653-1.092-2.78-4.252-5.627-4.409h-.012c-.069,0-.139-.008-.209-.008l-.053,0h-.074c-.075,0-.143,0-.212.008C3009.286,774.895,3007.157,778.055,3006.5,779.148Z" transform="translate(-3004.764 -773.107)" fill="#73f5fd"/>
  </g>
  <g id="Grupo_7" data-name="Grupo 7" transform="translate(5.044 3.239)">
    <path id="Trazado_7" data-name="Trazado 7" d="M3038.485,798.3a2.61,2.61,0,1,1,2.61-2.61A2.613,2.613,0,0,1,3038.485,798.3Zm0-3.6a.989.989,0,1,0,.989.989A.99.99,0,0,0,3038.485,794.7Z" transform="translate(-3035.875 -793.083)" fill="#73f5fd"/>
  </g>
</svg>
