<svg xmlns="http://www.w3.org/2000/svg" width="11.55" height="15.797" viewBox="0 0 11.55 15.797">
  <g id="Grupo_12" data-name="Grupo 12" transform="translate(0)">
    <g id="Grupo_10" data-name="Grupo 10">
      <g id="Grupo_9" data-name="Grupo 9">
        <path id="Trazado_8" data-name="Trazado 8" d="M2905.592,765.16a5.782,5.782,0,0,1-5.775-5.775c0-.11,0-.228.012-.361.236-4.576,5-9.237,5.2-9.433a.811.811,0,0,1,1.193.071c4.473,5.5,5.147,6.768,5.147,9.724A5.782,5.782,0,0,1,2905.592,765.16Zm-.049-13.76c-1.24,1.364-3.938,4.667-4.095,7.715-.006.095-.01.182-.01.27a4.154,4.154,0,0,0,8.308,0C2909.746,757.245,2909.572,756.4,2905.543,751.4Z" transform="translate(-2899.817 -749.363)" fill="#73f5fd"/>
      </g>
    </g>
    <g id="Grupo_11" data-name="Grupo 11" transform="translate(2.839 7.088)">
      <path id="Trazado_9" data-name="Trazado 9" d="M2918.709,798.14a.81.81,0,0,1-.677-.364,3.2,3.2,0,0,1,.491-4.534.811.811,0,0,1,.973,1.3c-.186.146-1.044.934-.113,2.343a.811.811,0,0,1-.675,1.258Z" transform="translate(-2917.328 -793.083)" fill="#73f5fd"/>
    </g>
  </g>
</svg>
